<?xml version="1.0" encoding="utf-8"?>
<!-- Generator: Adobe Illustrator 23.0.6, SVG Export Plug-In . SVG Version: 6.00 Build 0)  -->
<svg version="1.1" id="Layer_1" xmlns="http://www.w3.org/2000/svg" xmlns:xlink="http://www.w3.org/1999/xlink" x="0px" y="0px"
	 viewBox="0 0 43.49 45.19" style="enable-background:new 0 0 43.49 45.19;" xml:space="preserve">
<style type="text/css">
	.st0{fill:#FCF500;}
	.st1{fill:#FFFFFF;}
	.st2{enable-background:new    ;}
	.st3{fill:#022C43;}
	.st4{fill:#075A77;}
</style>
<g class="st2">
	<g>
		<polygon class="st3" points="31.1,41.25 29.39,38.38 27.24,31.73 28.96,34.61 		"/>
	</g>
	<g>
		<polygon class="st3" points="19.01,28.41 17.3,25.53 25.35,25.7 27.06,28.57 		"/>
	</g>
	<g>
		<polygon class="st3" points="27.06,28.57 25.35,25.7 21.58,13.91 23.3,16.78 		"/>
	</g>
	<g>
		<polygon class="st3" points="18.73,8.31 17.01,5.44 26.71,5.63 28.43,8.51 		"/>
	</g>
	<g>
		<polygon class="st3" points="5.94,40.74 4.23,37.87 17.01,5.44 18.73,8.31 		"/>
	</g>
	<g>
		<path class="st4" d="M28.43,8.51l11.38,32.92l-8.71-0.18l-2.14-6.64l-12.1-0.25l-2.42,6.55l-8.5-0.17L18.73,8.31L28.43,8.51z
			 M19.01,28.41l8.05,0.16L23.3,16.78L19.01,28.41"/>
	</g>
</g>
</svg>
